<svg xmlns="http://www.w3.org/2000/svg" xmlns:xlink="http://www.w3.org/1999/xlink" width="500"
    zoomAndPan="magnify" viewBox="0 0 375 374.999991" height="500"
    preserveAspectRatio="xMidYMid meet" version="1.0">
    <defs>
        <g />
        <clipPath id="81bbee1b76">
            <path d="M 267 165 L 289 165 L 289 187 L 267 187 Z M 267 165 " clip-rule="nonzero" />
        </clipPath>
        <clipPath id="e0ff8aa3f3">
            <path
                d="M 263.527344 168.453125 L 278.398438 154.707031 L 298.761719 176.738281 L 283.890625 190.484375 Z M 263.527344 168.453125 "
                clip-rule="nonzero" />
        </clipPath>
        <clipPath id="76b23f515c">
            <path
                d="M 263.527344 168.453125 L 278.398438 154.707031 L 298.761719 176.738281 L 283.890625 190.484375 Z M 263.527344 168.453125 "
                clip-rule="nonzero" />
        </clipPath>
        <clipPath id="d20ccd9f77">
            <path d="M 278 155 L 300 155 L 300 177 L 278 177 Z M 278 155 " clip-rule="nonzero" />
        </clipPath>
        <clipPath id="b5f0d0879c">
            <path
                d="M 274.199219 158.589844 L 289.070312 144.84375 L 309.429688 166.875 L 294.558594 180.621094 Z M 274.199219 158.589844 "
                clip-rule="nonzero" />
        </clipPath>
        <clipPath id="7ead47b936">
            <path
                d="M 274.199219 158.589844 L 289.070312 144.84375 L 309.429688 166.875 L 294.558594 180.621094 Z M 274.199219 158.589844 "
                clip-rule="nonzero" />
        </clipPath>
    </defs>
    <g clip-path="url(#81bbee1b76)">
        <g clip-path="url(#e0ff8aa3f3)">
            <g clip-path="url(#76b23f515c)">
                <path fill="#18cb96"
                    d="M 288.734375 165.996094 L 270.710938 165.191406 C 267.226562 165.039062 266.640625 171.820312 270.765625 171.933594 L 281.980469 172.234375 L 281.125 183.519531 C 280.863281 186.957031 287.566406 187.320312 287.757812 183.828125 Z M 288.734375 165.996094 "
                    fill-opacity="1" fill-rule="nonzero" />
            </g>
        </g>
    </g>
    <g clip-path="url(#d20ccd9f77)">
        <g clip-path="url(#b5f0d0879c)">
            <g clip-path="url(#7ead47b936)">
                <path fill="#18cb96"
                    d="M 299.40625 156.132812 L 281.378906 155.332031 C 277.898438 155.175781 277.3125 161.957031 281.4375 162.070312 L 292.652344 162.375 L 291.792969 173.660156 C 291.535156 177.09375 298.234375 177.457031 298.425781 173.964844 Z M 299.40625 156.132812 "
                    fill-opacity="1" fill-rule="nonzero" />
            </g>
        </g>
    </g>
    <g fill="#ffffff" fill-opacity="1">
        <g transform="translate(103.018532, 193.505495)">
            <g>
                <path
                    d="M 23.3125 -3.453125 C 23.738281 -2.921875 23.953125 -2.414062 23.953125 -1.9375 C 23.953125 -1.414062 23.738281 -0.960938 23.3125 -0.578125 C 22.894531 -0.191406 22.378906 0 21.765625 0 C 21.421875 0 21.078125 -0.0546875 20.734375 -0.171875 C 20.390625 -0.296875 20.070312 -0.515625 19.78125 -0.828125 L 11.9375 -9.5625 L 4.046875 -0.828125 C 3.773438 -0.535156 3.484375 -0.320312 3.171875 -0.1875 C 2.859375 -0.0625 2.539062 0 2.21875 0 C 1.632812 0 1.125 -0.195312 0.6875 -0.59375 C 0.257812 -0.988281 0.046875 -1.453125 0.046875 -1.984375 C 0.046875 -2.535156 0.253906 -3.035156 0.671875 -3.484375 L 9.15625 -12.8125 L 0.90625 -22.015625 C 0.507812 -22.460938 0.367188 -22.9375 0.484375 -23.4375 C 0.609375 -23.9375 0.878906 -24.363281 1.296875 -24.71875 C 1.722656 -25.082031 2.191406 -25.265625 2.703125 -25.265625 C 3.015625 -25.265625 3.316406 -25.21875 3.609375 -25.125 C 3.898438 -25.03125 4.164062 -24.851562 4.40625 -24.59375 L 12.015625 -16.140625 L 19.671875 -24.5 C 20.085938 -25.007812 20.65625 -25.265625 21.375 -25.265625 C 21.90625 -25.265625 22.375 -25.082031 22.78125 -24.71875 C 23.1875 -24.363281 23.441406 -23.9375 23.546875 -23.4375 C 23.660156 -22.9375 23.492188 -22.4375 23.046875 -21.9375 L 14.828125 -12.890625 Z M 23.3125 -3.453125 " />
            </g>
        </g>
    </g>
    <g fill="#ffffff" fill-opacity="1">
        <g transform="translate(126.970635, 193.505495)">
            <g>
                <path
                    d="M 15.671875 -14.75 C 15.054688 -15.46875 14.335938 -15.96875 13.515625 -16.25 C 12.703125 -16.539062 11.898438 -16.6875 11.109375 -16.6875 C 9.359375 -16.6875 7.953125 -16.085938 6.890625 -14.890625 C 5.835938 -13.691406 5.3125 -12.070312 5.3125 -10.03125 C 5.3125 -8.070312 5.859375 -6.5 6.953125 -5.3125 C 8.054688 -4.125 9.492188 -3.53125 11.265625 -3.53125 C 12.054688 -3.53125 12.859375 -3.664062 13.671875 -3.9375 C 14.492188 -4.21875 15.222656 -4.675781 15.859375 -5.3125 C 16.441406 -5.894531 17.015625 -6.195312 17.578125 -6.21875 C 18.148438 -6.25 18.617188 -6.09375 18.984375 -5.75 C 19.359375 -5.40625 19.566406 -4.960938 19.609375 -4.421875 C 19.648438 -3.878906 19.421875 -3.332031 18.921875 -2.78125 C 17.890625 -1.644531 16.703125 -0.832031 15.359375 -0.34375 C 14.023438 0.144531 12.644531 0.390625 11.21875 0.390625 C 9.132812 0.390625 7.304688 -0.0390625 5.734375 -0.90625 C 4.160156 -1.78125 2.9375 -3 2.0625 -4.5625 C 1.1875 -6.125 0.75 -7.9375 0.75 -10 C 0.75 -12.132812 1.175781 -13.992188 2.03125 -15.578125 C 2.894531 -17.171875 4.109375 -18.398438 5.671875 -19.265625 C 7.234375 -20.140625 9.046875 -20.578125 11.109375 -20.578125 C 12.554688 -20.578125 13.90625 -20.351562 15.15625 -19.90625 C 16.414062 -19.457031 17.578125 -18.613281 18.640625 -17.375 C 19.117188 -16.8125 19.320312 -16.265625 19.25 -15.734375 C 19.1875 -15.210938 18.957031 -14.78125 18.5625 -14.4375 C 18.164062 -14.09375 17.695312 -13.925781 17.15625 -13.9375 C 16.613281 -13.945312 16.117188 -14.21875 15.671875 -14.75 Z M 15.671875 -14.75 " />
            </g>
        </g>
    </g>
    <g fill="#ffffff" fill-opacity="1">
        <g transform="translate(146.798494, 193.505495)">
            <g>
                <path
                    d="M 11.34375 -3.53125 C 12.101562 -3.53125 12.851562 -3.632812 13.59375 -3.84375 C 14.34375 -4.050781 15.035156 -4.410156 15.671875 -4.921875 C 16.273438 -5.472656 16.867188 -5.726562 17.453125 -5.6875 C 18.035156 -5.644531 18.515625 -5.429688 18.890625 -5.046875 C 19.273438 -4.671875 19.46875 -4.195312 19.46875 -3.625 C 19.46875 -3.0625 19.191406 -2.515625 18.640625 -1.984375 C 17.710938 -1.085938 16.613281 -0.457031 15.34375 -0.09375 C 14.070312 0.257812 12.773438 0.421875 11.453125 0.390625 C 9.398438 0.390625 7.582031 -0.03125 6 -0.875 C 4.425781 -1.71875 3.195312 -2.890625 2.3125 -4.390625 C 1.425781 -5.898438 0.984375 -7.648438 0.984375 -9.640625 C 0.984375 -11.804688 1.40625 -13.707031 2.25 -15.34375 C 3.101562 -16.988281 4.300781 -18.269531 5.84375 -19.1875 C 7.394531 -20.113281 9.226562 -20.578125 11.34375 -20.578125 C 13.457031 -20.578125 15.253906 -20.144531 16.734375 -19.28125 C 18.210938 -18.425781 19.34375 -17.222656 20.125 -15.671875 C 20.90625 -14.128906 21.296875 -12.328125 21.296875 -10.265625 C 21.296875 -9.609375 21.160156 -9.046875 20.890625 -8.578125 C 20.628906 -8.117188 19.929688 -7.890625 18.796875 -7.890625 L 5.59375 -7.890625 C 5.957031 -6.597656 6.65625 -5.546875 7.6875 -4.734375 C 8.71875 -3.929688 9.9375 -3.53125 11.34375 -3.53125 Z M 11.375 -16.65625 C 9.84375 -16.65625 8.5625 -16.171875 7.53125 -15.203125 C 6.5 -14.242188 5.835938 -12.984375 5.546875 -11.421875 L 17.09375 -11.421875 C 16.957031 -12.984375 16.441406 -14.242188 15.546875 -15.203125 C 14.648438 -16.171875 13.257812 -16.65625 11.375 -16.65625 Z M 11.375 -16.65625 " />
            </g>
        </g>
    </g>
    <g fill="#ffffff" fill-opacity="1">
        <g transform="translate(169.838503, 193.505495)">
            <g>
                <path
                    d="M 5.90625 -1.984375 C 5.90625 -1.453125 5.6875 -0.988281 5.25 -0.59375 C 4.8125 -0.195312 4.273438 0 3.640625 0 C 2.984375 0 2.441406 -0.195312 2.015625 -0.59375 C 1.597656 -0.988281 1.390625 -1.453125 1.390625 -1.984375 L 1.390625 -23.671875 C 1.390625 -24.203125 1.597656 -24.664062 2.015625 -25.0625 C 2.441406 -25.457031 2.984375 -25.65625 3.640625 -25.65625 C 4.273438 -25.65625 4.8125 -25.457031 5.25 -25.0625 C 5.6875 -24.664062 5.90625 -24.203125 5.90625 -23.671875 Z M 5.90625 -1.984375 " />
            </g>
        </g>
    </g>
    <g fill="#ffffff" fill-opacity="1">
        <g transform="translate(176.341848, 193.505495)">
            <g>
                <path
                    d="M 2.8125 -9.796875 C 2.019531 -9.796875 1.4375 -10.003906 1.0625 -10.421875 C 0.695312 -10.847656 0.515625 -11.300781 0.515625 -11.78125 C 0.515625 -12.3125 0.710938 -12.78125 1.109375 -13.1875 C 1.503906 -13.59375 2.070312 -13.796875 2.8125 -13.796875 L 10.34375 -13.796875 C 11.113281 -13.796875 11.695312 -13.59375 12.09375 -13.1875 C 12.488281 -12.78125 12.6875 -12.3125 12.6875 -11.78125 C 12.6875 -11.28125 12.492188 -10.820312 12.109375 -10.40625 C 11.734375 -10 11.144531 -9.796875 10.34375 -9.796875 Z M 2.8125 -9.796875 " />
            </g>
        </g>
    </g>
    <g fill="#ffffff" fill-opacity="1">
        <g transform="translate(189.30917, 193.505495)">
            <g>
                <path
                    d="M 20.546875 -25.265625 C 21.304688 -25.265625 21.882812 -25.050781 22.28125 -24.625 C 22.675781 -24.195312 22.875 -23.722656 22.875 -23.203125 C 22.875 -22.703125 22.675781 -22.238281 22.28125 -21.8125 C 21.882812 -21.382812 21.304688 -21.171875 20.546875 -21.171875 L 13.171875 -21.171875 L 13.203125 -2.109375 C 13.203125 -1.390625 12.941406 -0.859375 12.421875 -0.515625 C 11.910156 -0.171875 11.390625 0 10.859375 0 C 10.304688 0 9.785156 -0.171875 9.296875 -0.515625 C 8.804688 -0.859375 8.5625 -1.390625 8.5625 -2.109375 L 8.5625 -21.171875 L 1.234375 -21.171875 C 0.460938 -21.171875 -0.0976562 -21.382812 -0.453125 -21.8125 C -0.804688 -22.238281 -0.984375 -22.703125 -0.984375 -23.203125 C -0.984375 -23.722656 -0.804688 -24.195312 -0.453125 -24.625 C -0.0976562 -25.050781 0.460938 -25.265625 1.234375 -25.265625 Z M 20.546875 -25.265625 " />
            </g>
        </g>
    </g>
    <g fill="#ffffff" fill-opacity="1">
        <g transform="translate(211.159493, 193.505495)">
            <g>
                <path
                    d="M 11.34375 -3.53125 C 12.101562 -3.53125 12.851562 -3.632812 13.59375 -3.84375 C 14.34375 -4.050781 15.035156 -4.410156 15.671875 -4.921875 C 16.273438 -5.472656 16.867188 -5.726562 17.453125 -5.6875 C 18.035156 -5.644531 18.515625 -5.429688 18.890625 -5.046875 C 19.273438 -4.671875 19.46875 -4.195312 19.46875 -3.625 C 19.46875 -3.0625 19.191406 -2.515625 18.640625 -1.984375 C 17.710938 -1.085938 16.613281 -0.457031 15.34375 -0.09375 C 14.070312 0.257812 12.773438 0.421875 11.453125 0.390625 C 9.398438 0.390625 7.582031 -0.03125 6 -0.875 C 4.425781 -1.71875 3.195312 -2.890625 2.3125 -4.390625 C 1.425781 -5.898438 0.984375 -7.648438 0.984375 -9.640625 C 0.984375 -11.804688 1.40625 -13.707031 2.25 -15.34375 C 3.101562 -16.988281 4.300781 -18.269531 5.84375 -19.1875 C 7.394531 -20.113281 9.226562 -20.578125 11.34375 -20.578125 C 13.457031 -20.578125 15.253906 -20.144531 16.734375 -19.28125 C 18.210938 -18.425781 19.34375 -17.222656 20.125 -15.671875 C 20.90625 -14.128906 21.296875 -12.328125 21.296875 -10.265625 C 21.296875 -9.609375 21.160156 -9.046875 20.890625 -8.578125 C 20.628906 -8.117188 19.929688 -7.890625 18.796875 -7.890625 L 5.59375 -7.890625 C 5.957031 -6.597656 6.65625 -5.546875 7.6875 -4.734375 C 8.71875 -3.929688 9.9375 -3.53125 11.34375 -3.53125 Z M 11.375 -16.65625 C 9.84375 -16.65625 8.5625 -16.171875 7.53125 -15.203125 C 6.5 -14.242188 5.835938 -12.984375 5.546875 -11.421875 L 17.09375 -11.421875 C 16.957031 -12.984375 16.441406 -14.242188 15.546875 -15.203125 C 14.648438 -16.171875 13.257812 -16.65625 11.375 -16.65625 Z M 11.375 -16.65625 " />
            </g>
        </g>
    </g>
    <g fill="#ffffff" fill-opacity="1">
        <g transform="translate(234.199503, 193.505495)">
            <g>
                <path
                    d="M 15.671875 -14.75 C 15.054688 -15.46875 14.335938 -15.96875 13.515625 -16.25 C 12.703125 -16.539062 11.898438 -16.6875 11.109375 -16.6875 C 9.359375 -16.6875 7.953125 -16.085938 6.890625 -14.890625 C 5.835938 -13.691406 5.3125 -12.070312 5.3125 -10.03125 C 5.3125 -8.070312 5.859375 -6.5 6.953125 -5.3125 C 8.054688 -4.125 9.492188 -3.53125 11.265625 -3.53125 C 12.054688 -3.53125 12.859375 -3.664062 13.671875 -3.9375 C 14.492188 -4.21875 15.222656 -4.675781 15.859375 -5.3125 C 16.441406 -5.894531 17.015625 -6.195312 17.578125 -6.21875 C 18.148438 -6.25 18.617188 -6.09375 18.984375 -5.75 C 19.359375 -5.40625 19.566406 -4.960938 19.609375 -4.421875 C 19.648438 -3.878906 19.421875 -3.332031 18.921875 -2.78125 C 17.890625 -1.644531 16.703125 -0.832031 15.359375 -0.34375 C 14.023438 0.144531 12.644531 0.390625 11.21875 0.390625 C 9.132812 0.390625 7.304688 -0.0390625 5.734375 -0.90625 C 4.160156 -1.78125 2.9375 -3 2.0625 -4.5625 C 1.1875 -6.125 0.75 -7.9375 0.75 -10 C 0.75 -12.132812 1.175781 -13.992188 2.03125 -15.578125 C 2.894531 -17.171875 4.109375 -18.398438 5.671875 -19.265625 C 7.234375 -20.140625 9.046875 -20.578125 11.109375 -20.578125 C 12.554688 -20.578125 13.90625 -20.351562 15.15625 -19.90625 C 16.414062 -19.457031 17.578125 -18.613281 18.640625 -17.375 C 19.117188 -16.8125 19.320312 -16.265625 19.25 -15.734375 C 19.1875 -15.210938 18.957031 -14.78125 18.5625 -14.4375 C 18.164062 -14.09375 17.695312 -13.925781 17.15625 -13.9375 C 16.613281 -13.945312 16.117188 -14.21875 15.671875 -14.75 Z M 15.671875 -14.75 " />
            </g>
        </g>
    </g>
    <g fill="#ffffff" fill-opacity="1">
        <g transform="translate(254.027364, 193.505495)">
            <g>
                <path
                    d="M 13.125 -20.578125 C 14.976562 -20.578125 16.550781 -20.171875 17.84375 -19.359375 C 19.132812 -18.554688 20.125 -17.441406 20.8125 -16.015625 C 21.5 -14.585938 21.84375 -12.925781 21.84375 -11.03125 L 21.84375 -2.0625 C 21.84375 -1.457031 21.648438 -0.960938 21.265625 -0.578125 C 20.890625 -0.191406 20.332031 0 19.59375 0 C 18.925781 0 18.378906 -0.191406 17.953125 -0.578125 C 17.535156 -0.960938 17.328125 -1.457031 17.328125 -2.0625 L 17.328125 -11.109375 C 17.328125 -12.742188 16.9375 -14.066406 16.15625 -15.078125 C 15.375 -16.097656 14.148438 -16.609375 12.484375 -16.609375 C 11.984375 -16.609375 11.394531 -16.492188 10.71875 -16.265625 C 10.050781 -16.046875 9.398438 -15.6875 8.765625 -15.1875 C 8.128906 -14.6875 7.597656 -14.039062 7.171875 -13.25 C 6.753906 -12.457031 6.546875 -11.476562 6.546875 -10.3125 L 6.546875 -2.0625 C 6.546875 -1.457031 6.351562 -0.960938 5.96875 -0.578125 C 5.582031 -0.191406 5.035156 0 4.328125 0 C 3.609375 0 3.035156 -0.191406 2.609375 -0.578125 C 2.191406 -0.960938 1.984375 -1.457031 1.984375 -2.0625 L 1.984375 -23.75 C 1.984375 -24.363281 2.226562 -24.832031 2.71875 -25.15625 C 3.207031 -25.488281 3.726562 -25.65625 4.28125 -25.65625 C 4.863281 -25.65625 5.382812 -25.488281 5.84375 -25.15625 C 6.3125 -24.832031 6.546875 -24.363281 6.546875 -23.75 L 6.546875 -18.359375 C 7.628906 -19.285156 8.75 -19.882812 9.90625 -20.15625 C 11.070312 -20.4375 12.144531 -20.578125 13.125 -20.578125 Z M 13.125 -20.578125 " />
            </g>
        </g>
    </g>
    <g fill="#ffffff" fill-opacity="1">
        <g transform="translate(113.19181, 220.09244)">
            <g>
                <path
                    d="M 8.09375 -3.03125 L 2.484375 -3.03125 L 1.34375 0 L 0.515625 0 L 4.875 -11.578125 L 5.71875 -11.578125 L 10.0625 0 L 9.234375 0 Z M 7.859375 -3.671875 L 5.296875 -10.578125 L 2.71875 -3.671875 Z M 7.859375 -3.671875 " />
            </g>
        </g>
    </g>
    <g fill="#ffffff" fill-opacity="1">
        <g transform="translate(123.13274, 220.09244)">
            <g />
        </g>
    </g>
    <g fill="#ffffff" fill-opacity="1">
        <g transform="translate(127.250784, 220.09244)">
            <g>
                <path
                    d="M 4.8125 0.125 C 4.039062 0.125 3.367188 -0.0078125 2.796875 -0.28125 C 2.222656 -0.550781 1.773438 -0.914062 1.453125 -1.375 C 1.140625 -1.84375 0.957031 -2.359375 0.90625 -2.921875 L 1.703125 -2.921875 C 1.796875 -2.296875 2.085938 -1.742188 2.578125 -1.265625 C 3.066406 -0.785156 3.8125 -0.546875 4.8125 -0.546875 C 5.394531 -0.546875 5.898438 -0.648438 6.328125 -0.859375 C 6.765625 -1.078125 7.097656 -1.367188 7.328125 -1.734375 C 7.566406 -2.109375 7.6875 -2.519531 7.6875 -2.96875 C 7.6875 -3.539062 7.550781 -3.992188 7.28125 -4.328125 C 7.007812 -4.671875 6.664062 -4.925781 6.25 -5.09375 C 5.84375 -5.257812 5.289062 -5.441406 4.59375 -5.640625 C 3.820312 -5.835938 3.203125 -6.035156 2.734375 -6.234375 C 2.273438 -6.441406 1.882812 -6.753906 1.5625 -7.171875 C 1.238281 -7.597656 1.078125 -8.175781 1.078125 -8.90625 C 1.078125 -9.46875 1.222656 -9.984375 1.515625 -10.453125 C 1.816406 -10.921875 2.242188 -11.289062 2.796875 -11.5625 C 3.347656 -11.832031 3.984375 -11.96875 4.703125 -11.96875 C 5.753906 -11.96875 6.597656 -11.707031 7.234375 -11.1875 C 7.878906 -10.664062 8.265625 -10.03125 8.390625 -9.28125 L 7.578125 -9.28125 C 7.503906 -9.582031 7.351562 -9.890625 7.125 -10.203125 C 6.894531 -10.523438 6.566406 -10.789062 6.140625 -11 C 5.722656 -11.207031 5.222656 -11.3125 4.640625 -11.3125 C 3.847656 -11.3125 3.179688 -11.09375 2.640625 -10.65625 C 2.109375 -10.21875 1.84375 -9.640625 1.84375 -8.921875 C 1.84375 -8.347656 1.984375 -7.890625 2.265625 -7.546875 C 2.546875 -7.203125 2.890625 -6.941406 3.296875 -6.765625 C 3.710938 -6.597656 4.269531 -6.425781 4.96875 -6.25 C 5.738281 -6.03125 6.351562 -5.820312 6.8125 -5.625 C 7.269531 -5.425781 7.65625 -5.113281 7.96875 -4.6875 C 8.289062 -4.269531 8.453125 -3.703125 8.453125 -2.984375 C 8.453125 -2.453125 8.3125 -1.953125 8.03125 -1.484375 C 7.75 -1.015625 7.332031 -0.628906 6.78125 -0.328125 C 6.238281 -0.0234375 5.582031 0.125 4.8125 0.125 Z M 4.8125 0.125 " />
            </g>
        </g>
    </g>
    <g fill="#ffffff" fill-opacity="1">
        <g transform="translate(135.959621, 220.09244)">
            <g>
                <path
                    d="M 5.421875 0.140625 C 4.566406 0.140625 3.796875 -0.0507812 3.109375 -0.4375 C 2.421875 -0.820312 1.878906 -1.367188 1.484375 -2.078125 C 1.097656 -2.796875 0.90625 -3.632812 0.90625 -4.59375 C 0.90625 -5.53125 1.101562 -6.359375 1.5 -7.078125 C 1.894531 -7.796875 2.4375 -8.34375 3.125 -8.71875 C 3.820312 -9.09375 4.597656 -9.28125 5.453125 -9.28125 C 6.304688 -9.28125 7.078125 -9.09375 7.765625 -8.71875 C 8.453125 -8.34375 8.988281 -7.800781 9.375 -7.09375 C 9.757812 -6.382812 9.953125 -5.550781 9.953125 -4.59375 C 9.953125 -3.632812 9.753906 -2.796875 9.359375 -2.078125 C 8.972656 -1.367188 8.429688 -0.820312 7.734375 -0.4375 C 7.046875 -0.0507812 6.273438 0.140625 5.421875 0.140625 Z M 5.421875 -0.546875 C 6.078125 -0.546875 6.695312 -0.691406 7.28125 -0.984375 C 7.863281 -1.285156 8.328125 -1.738281 8.671875 -2.34375 C 9.023438 -2.945312 9.203125 -3.695312 9.203125 -4.59375 C 9.203125 -5.46875 9.023438 -6.207031 8.671875 -6.8125 C 8.328125 -7.425781 7.863281 -7.878906 7.28125 -8.171875 C 6.707031 -8.472656 6.09375 -8.625 5.4375 -8.625 C 4.769531 -8.625 4.148438 -8.472656 3.578125 -8.171875 C 3.015625 -7.878906 2.554688 -7.425781 2.203125 -6.8125 C 1.859375 -6.207031 1.6875 -5.46875 1.6875 -4.59375 C 1.6875 -3.695312 1.859375 -2.945312 2.203125 -2.34375 C 2.546875 -1.738281 3 -1.285156 3.5625 -0.984375 C 4.132812 -0.691406 4.753906 -0.546875 5.421875 -0.546875 Z M 5.421875 -0.546875 " />
            </g>
        </g>
    </g>
    <g fill="#ffffff" fill-opacity="1">
        <g transform="translate(146.204347, 220.09244)">
            <g>
                <path
                    d="M 2.140625 -12.484375 L 2.140625 0 L 1.390625 0 L 1.390625 -12.484375 Z M 2.140625 -12.484375 " />
            </g>
        </g>
    </g>
    <g fill="#ffffff" fill-opacity="1">
        <g transform="translate(149.107174, 220.09244)">
            <g>
                <path
                    d="M 9.125 -9.15625 L 9.125 0 L 8.375 0 L 8.375 -1.984375 C 8.113281 -1.285156 7.679688 -0.753906 7.078125 -0.390625 C 6.472656 -0.0234375 5.785156 0.15625 5.015625 0.15625 C 3.921875 0.15625 3.023438 -0.175781 2.328125 -0.84375 C 1.640625 -1.519531 1.296875 -2.515625 1.296875 -3.828125 L 1.296875 -9.15625 L 2.046875 -9.15625 L 2.046875 -3.875 C 2.046875 -2.789062 2.320312 -1.957031 2.875 -1.375 C 3.425781 -0.789062 4.171875 -0.5 5.109375 -0.5 C 6.097656 -0.5 6.890625 -0.8125 7.484375 -1.4375 C 8.078125 -2.070312 8.375 -3.007812 8.375 -4.25 L 8.375 -9.15625 Z M 9.125 -9.15625 " />
            </g>
        </g>
    </g>
    <g fill="#ffffff" fill-opacity="1">
        <g transform="translate(158.980594, 220.09244)">
            <g>
                <path
                    d="M 2.515625 -8.5 L 2.515625 -2.453125 C 2.515625 -1.773438 2.632812 -1.304688 2.875 -1.046875 C 3.125 -0.796875 3.566406 -0.671875 4.203125 -0.671875 L 5.234375 -0.671875 L 5.234375 0 L 4.078125 0 C 3.285156 0 2.695312 -0.1875 2.3125 -0.5625 C 1.9375 -0.9375 1.75 -1.566406 1.75 -2.453125 L 1.75 -8.5 L 0.375 -8.5 L 0.375 -9.15625 L 1.75 -9.15625 L 1.75 -11.484375 L 2.515625 -11.484375 L 2.515625 -9.15625 L 5.234375 -9.15625 L 5.234375 -8.5 Z M 2.515625 -8.5 " />
            </g>
        </g>
    </g>
    <g fill="#ffffff" fill-opacity="1">
        <g transform="translate(164.195701, 220.09244)">
            <g>
                <path
                    d="M 1.765625 -11.203125 C 1.585938 -11.203125 1.4375 -11.257812 1.3125 -11.375 C 1.1875 -11.5 1.125 -11.660156 1.125 -11.859375 C 1.125 -12.054688 1.1875 -12.210938 1.3125 -12.328125 C 1.4375 -12.453125 1.585938 -12.515625 1.765625 -12.515625 C 1.953125 -12.515625 2.101562 -12.453125 2.21875 -12.328125 C 2.34375 -12.210938 2.40625 -12.054688 2.40625 -11.859375 C 2.40625 -11.660156 2.34375 -11.5 2.21875 -11.375 C 2.101562 -11.257812 1.953125 -11.203125 1.765625 -11.203125 Z M 2.140625 -9.15625 L 2.140625 0 L 1.390625 0 L 1.390625 -9.15625 Z M 2.140625 -9.15625 " />
            </g>
        </g>
    </g>
    <g fill="#ffffff" fill-opacity="1">
        <g transform="translate(167.098527, 220.09244)">
            <g>
                <path
                    d="M 5.421875 0.140625 C 4.566406 0.140625 3.796875 -0.0507812 3.109375 -0.4375 C 2.421875 -0.820312 1.878906 -1.367188 1.484375 -2.078125 C 1.097656 -2.796875 0.90625 -3.632812 0.90625 -4.59375 C 0.90625 -5.53125 1.101562 -6.359375 1.5 -7.078125 C 1.894531 -7.796875 2.4375 -8.34375 3.125 -8.71875 C 3.820312 -9.09375 4.597656 -9.28125 5.453125 -9.28125 C 6.304688 -9.28125 7.078125 -9.09375 7.765625 -8.71875 C 8.453125 -8.34375 8.988281 -7.800781 9.375 -7.09375 C 9.757812 -6.382812 9.953125 -5.550781 9.953125 -4.59375 C 9.953125 -3.632812 9.753906 -2.796875 9.359375 -2.078125 C 8.972656 -1.367188 8.429688 -0.820312 7.734375 -0.4375 C 7.046875 -0.0507812 6.273438 0.140625 5.421875 0.140625 Z M 5.421875 -0.546875 C 6.078125 -0.546875 6.695312 -0.691406 7.28125 -0.984375 C 7.863281 -1.285156 8.328125 -1.738281 8.671875 -2.34375 C 9.023438 -2.945312 9.203125 -3.695312 9.203125 -4.59375 C 9.203125 -5.46875 9.023438 -6.207031 8.671875 -6.8125 C 8.328125 -7.425781 7.863281 -7.878906 7.28125 -8.171875 C 6.707031 -8.472656 6.09375 -8.625 5.4375 -8.625 C 4.769531 -8.625 4.148438 -8.472656 3.578125 -8.171875 C 3.015625 -7.878906 2.554688 -7.425781 2.203125 -6.8125 C 1.859375 -6.207031 1.6875 -5.46875 1.6875 -4.59375 C 1.6875 -3.695312 1.859375 -2.945312 2.203125 -2.34375 C 2.546875 -1.738281 3 -1.285156 3.5625 -0.984375 C 4.132812 -0.691406 4.753906 -0.546875 5.421875 -0.546875 Z M 5.421875 -0.546875 " />
            </g>
        </g>
    </g>
    <g fill="#ffffff" fill-opacity="1">
        <g transform="translate(177.343252, 220.09244)">
            <g>
                <path
                    d="M 5.515625 -9.34375 C 6.609375 -9.34375 7.5 -9.007812 8.1875 -8.34375 C 8.875 -7.675781 9.21875 -6.679688 9.21875 -5.359375 L 9.21875 0 L 8.46875 0 L 8.46875 -5.3125 C 8.46875 -6.40625 8.191406 -7.238281 7.640625 -7.8125 C 7.085938 -8.394531 6.34375 -8.6875 5.40625 -8.6875 C 4.414062 -8.6875 3.625 -8.367188 3.03125 -7.734375 C 2.4375 -7.109375 2.140625 -6.175781 2.140625 -4.9375 L 2.140625 0 L 1.390625 0 L 1.390625 -9.15625 L 2.140625 -9.15625 L 2.140625 -7.21875 C 2.398438 -7.90625 2.832031 -8.429688 3.4375 -8.796875 C 4.039062 -9.160156 4.734375 -9.34375 5.515625 -9.34375 Z M 5.515625 -9.34375 " />
            </g>
        </g>
    </g>
    <g fill="#ffffff" fill-opacity="1">
        <g transform="translate(187.216673, 220.09244)">
            <g />
        </g>
    </g>
    <g fill="#ffffff" fill-opacity="1">
        <g transform="translate(191.334715, 220.09244)">
            <g>
                <path
                    d="M 8.6875 -11.84375 L 4.96875 -4.796875 L 4.96875 0 L 4.203125 0 L 4.203125 -4.796875 L 0.4375 -11.84375 L 1.296875 -11.84375 L 4.578125 -5.5 L 7.828125 -11.84375 Z M 8.6875 -11.84375 " />
            </g>
        </g>
    </g>
    <g fill="#ffffff" fill-opacity="1">
        <g transform="translate(199.824137, 220.09244)">
            <g>
                <path
                    d="M 5.421875 0.140625 C 4.566406 0.140625 3.796875 -0.0507812 3.109375 -0.4375 C 2.421875 -0.820312 1.878906 -1.367188 1.484375 -2.078125 C 1.097656 -2.796875 0.90625 -3.632812 0.90625 -4.59375 C 0.90625 -5.53125 1.101562 -6.359375 1.5 -7.078125 C 1.894531 -7.796875 2.4375 -8.34375 3.125 -8.71875 C 3.820312 -9.09375 4.597656 -9.28125 5.453125 -9.28125 C 6.304688 -9.28125 7.078125 -9.09375 7.765625 -8.71875 C 8.453125 -8.34375 8.988281 -7.800781 9.375 -7.09375 C 9.757812 -6.382812 9.953125 -5.550781 9.953125 -4.59375 C 9.953125 -3.632812 9.753906 -2.796875 9.359375 -2.078125 C 8.972656 -1.367188 8.429688 -0.820312 7.734375 -0.4375 C 7.046875 -0.0507812 6.273438 0.140625 5.421875 0.140625 Z M 5.421875 -0.546875 C 6.078125 -0.546875 6.695312 -0.691406 7.28125 -0.984375 C 7.863281 -1.285156 8.328125 -1.738281 8.671875 -2.34375 C 9.023438 -2.945312 9.203125 -3.695312 9.203125 -4.59375 C 9.203125 -5.46875 9.023438 -6.207031 8.671875 -6.8125 C 8.328125 -7.425781 7.863281 -7.878906 7.28125 -8.171875 C 6.707031 -8.472656 6.09375 -8.625 5.4375 -8.625 C 4.769531 -8.625 4.148438 -8.472656 3.578125 -8.171875 C 3.015625 -7.878906 2.554688 -7.425781 2.203125 -6.8125 C 1.859375 -6.207031 1.6875 -5.46875 1.6875 -4.59375 C 1.6875 -3.695312 1.859375 -2.945312 2.203125 -2.34375 C 2.546875 -1.738281 3 -1.285156 3.5625 -0.984375 C 4.132812 -0.691406 4.753906 -0.546875 5.421875 -0.546875 Z M 5.421875 -0.546875 " />
            </g>
        </g>
    </g>
    <g fill="#ffffff" fill-opacity="1">
        <g transform="translate(210.068863, 220.09244)">
            <g>
                <path
                    d="M 9.125 -9.15625 L 9.125 0 L 8.375 0 L 8.375 -1.984375 C 8.113281 -1.285156 7.679688 -0.753906 7.078125 -0.390625 C 6.472656 -0.0234375 5.785156 0.15625 5.015625 0.15625 C 3.921875 0.15625 3.023438 -0.175781 2.328125 -0.84375 C 1.640625 -1.519531 1.296875 -2.515625 1.296875 -3.828125 L 1.296875 -9.15625 L 2.046875 -9.15625 L 2.046875 -3.875 C 2.046875 -2.789062 2.320312 -1.957031 2.875 -1.375 C 3.425781 -0.789062 4.171875 -0.5 5.109375 -0.5 C 6.097656 -0.5 6.890625 -0.8125 7.484375 -1.4375 C 8.078125 -2.070312 8.375 -3.007812 8.375 -4.25 L 8.375 -9.15625 Z M 9.125 -9.15625 " />
            </g>
        </g>
    </g>
    <g fill="#ffffff" fill-opacity="1">
        <g transform="translate(219.942283, 220.09244)">
            <g />
        </g>
    </g>
    <g fill="#ffffff" fill-opacity="1">
        <g transform="translate(224.060332, 220.09244)">
            <g>
                <path
                    d="M 9.859375 0 L 9.09375 0 L 2.140625 -10.59375 L 2.140625 0 L 1.390625 0 L 1.390625 -11.828125 L 2.140625 -11.828125 L 9.09375 -1.265625 L 9.09375 -11.828125 L 9.859375 -11.828125 Z M 9.859375 0 " />
            </g>
        </g>
    </g>
    <g fill="#ffffff" fill-opacity="1">
        <g transform="translate(234.676375, 220.09244)">
            <g>
                <path
                    d="M 9.640625 -5.203125 C 9.640625 -4.796875 9.628906 -4.488281 9.609375 -4.28125 L 1.6875 -4.28125 C 1.707031 -3.457031 1.882812 -2.765625 2.21875 -2.203125 C 2.5625 -1.640625 3.007812 -1.21875 3.5625 -0.9375 C 4.113281 -0.65625 4.710938 -0.515625 5.359375 -0.515625 C 6.265625 -0.515625 7.019531 -0.738281 7.625 -1.1875 C 8.226562 -1.632812 8.613281 -2.238281 8.78125 -3 L 9.5625 -3 C 9.382812 -2.070312 8.925781 -1.316406 8.1875 -0.734375 C 7.445312 -0.148438 6.503906 0.140625 5.359375 0.140625 C 4.503906 0.140625 3.738281 -0.0507812 3.0625 -0.4375 C 2.394531 -0.820312 1.867188 -1.367188 1.484375 -2.078125 C 1.097656 -2.796875 0.90625 -3.632812 0.90625 -4.59375 C 0.90625 -5.550781 1.09375 -6.382812 1.46875 -7.09375 C 1.851562 -7.800781 2.378906 -8.34375 3.046875 -8.71875 C 3.722656 -9.09375 4.492188 -9.28125 5.359375 -9.28125 C 6.242188 -9.28125 7.007812 -9.09375 7.65625 -8.71875 C 8.300781 -8.34375 8.789062 -7.84375 9.125 -7.21875 C 9.46875 -6.59375 9.640625 -5.921875 9.640625 -5.203125 Z M 8.875 -4.90625 C 8.90625 -5.71875 8.757812 -6.40625 8.4375 -6.96875 C 8.125 -7.53125 7.691406 -7.945312 7.140625 -8.21875 C 6.585938 -8.5 5.988281 -8.640625 5.34375 -8.640625 C 4.707031 -8.640625 4.113281 -8.5 3.5625 -8.21875 C 3.019531 -7.945312 2.578125 -7.53125 2.234375 -6.96875 C 1.890625 -6.40625 1.707031 -5.71875 1.6875 -4.90625 Z M 8.875 -4.90625 " />
            </g>
        </g>
    </g>
    <g fill="#ffffff" fill-opacity="1">
        <g transform="translate(244.583549, 220.09244)">
            <g>
                <path
                    d="M 9.640625 -5.203125 C 9.640625 -4.796875 9.628906 -4.488281 9.609375 -4.28125 L 1.6875 -4.28125 C 1.707031 -3.457031 1.882812 -2.765625 2.21875 -2.203125 C 2.5625 -1.640625 3.007812 -1.21875 3.5625 -0.9375 C 4.113281 -0.65625 4.710938 -0.515625 5.359375 -0.515625 C 6.265625 -0.515625 7.019531 -0.738281 7.625 -1.1875 C 8.226562 -1.632812 8.613281 -2.238281 8.78125 -3 L 9.5625 -3 C 9.382812 -2.070312 8.925781 -1.316406 8.1875 -0.734375 C 7.445312 -0.148438 6.503906 0.140625 5.359375 0.140625 C 4.503906 0.140625 3.738281 -0.0507812 3.0625 -0.4375 C 2.394531 -0.820312 1.867188 -1.367188 1.484375 -2.078125 C 1.097656 -2.796875 0.90625 -3.632812 0.90625 -4.59375 C 0.90625 -5.550781 1.09375 -6.382812 1.46875 -7.09375 C 1.851562 -7.800781 2.378906 -8.34375 3.046875 -8.71875 C 3.722656 -9.09375 4.492188 -9.28125 5.359375 -9.28125 C 6.242188 -9.28125 7.007812 -9.09375 7.65625 -8.71875 C 8.300781 -8.34375 8.789062 -7.84375 9.125 -7.21875 C 9.46875 -6.59375 9.640625 -5.921875 9.640625 -5.203125 Z M 8.875 -4.90625 C 8.90625 -5.71875 8.757812 -6.40625 8.4375 -6.96875 C 8.125 -7.53125 7.691406 -7.945312 7.140625 -8.21875 C 6.585938 -8.5 5.988281 -8.640625 5.34375 -8.640625 C 4.707031 -8.640625 4.113281 -8.5 3.5625 -8.21875 C 3.019531 -7.945312 2.578125 -7.53125 2.234375 -6.96875 C 1.890625 -6.40625 1.707031 -5.71875 1.6875 -4.90625 Z M 8.875 -4.90625 " />
            </g>
        </g>
    </g>
    <g fill="#ffffff" fill-opacity="1">
        <g transform="translate(254.490723, 220.09244)">
            <g>
                <path
                    d="M 0.90625 -4.59375 C 0.90625 -5.53125 1.09375 -6.351562 1.46875 -7.0625 C 1.851562 -7.78125 2.378906 -8.328125 3.046875 -8.703125 C 3.710938 -9.085938 4.472656 -9.28125 5.328125 -9.28125 C 6.265625 -9.28125 7.078125 -9.046875 7.765625 -8.578125 C 8.453125 -8.109375 8.9375 -7.503906 9.21875 -6.765625 L 9.21875 -12.484375 L 9.96875 -12.484375 L 9.96875 0 L 9.21875 0 L 9.21875 -2.4375 C 8.945312 -1.675781 8.472656 -1.054688 7.796875 -0.578125 C 7.117188 -0.0976562 6.296875 0.140625 5.328125 0.140625 C 4.472656 0.140625 3.710938 -0.0507812 3.046875 -0.4375 C 2.378906 -0.832031 1.851562 -1.382812 1.46875 -2.09375 C 1.09375 -2.8125 0.90625 -3.644531 0.90625 -4.59375 Z M 9.21875 -4.59375 C 9.21875 -5.382812 9.050781 -6.085938 8.71875 -6.703125 C 8.382812 -7.316406 7.929688 -7.789062 7.359375 -8.125 C 6.785156 -8.457031 6.144531 -8.625 5.4375 -8.625 C 4.6875 -8.625 4.03125 -8.460938 3.46875 -8.140625 C 2.90625 -7.816406 2.46875 -7.351562 2.15625 -6.75 C 1.84375 -6.144531 1.6875 -5.425781 1.6875 -4.59375 C 1.6875 -3.757812 1.84375 -3.035156 2.15625 -2.421875 C 2.46875 -1.816406 2.910156 -1.351562 3.484375 -1.03125 C 4.054688 -0.707031 4.707031 -0.546875 5.4375 -0.546875 C 6.144531 -0.546875 6.785156 -0.707031 7.359375 -1.03125 C 7.941406 -1.363281 8.394531 -1.835938 8.71875 -2.453125 C 9.050781 -3.066406 9.21875 -3.78125 9.21875 -4.59375 Z M 9.21875 -4.59375 " />
            </g>
        </g>
    </g>
    <g fill="#ffffff" fill-opacity="1">
        <g transform="translate(265.208041, 220.09244)">
            <g>
                <path
                    d="M 2.5 -11.84375 L 2.40625 -2.890625 L 1.75 -2.890625 L 1.65625 -11.84375 Z M 2.125 0.046875 C 1.9375 0.046875 1.78125 -0.015625 1.65625 -0.140625 C 1.53125 -0.265625 1.46875 -0.421875 1.46875 -0.609375 C 1.46875 -0.796875 1.53125 -0.953125 1.65625 -1.078125 C 1.78125 -1.203125 1.9375 -1.265625 2.125 -1.265625 C 2.300781 -1.265625 2.453125 -1.203125 2.578125 -1.078125 C 2.703125 -0.953125 2.765625 -0.796875 2.765625 -0.609375 C 2.765625 -0.421875 2.703125 -0.265625 2.578125 -0.140625 C 2.453125 -0.015625 2.300781 0.046875 2.125 0.046875 Z M 2.125 0.046875 " />
            </g>
        </g>
    </g>
</svg>